# xmcd
#
# Track frame offsets: 
#        150
#        18868
#        38529
#        57917
#        73658
#        91456
#        109389
#        123809
#        138969
#        163251
#        187342
#        208475
#
# Disc length: 3024 seconds
#
# Revision: 0
# Processed by: cddbd v1.5.2PL0 Copyright (c) Steve Scherf et al.
# Submitted via: ExactAudioCopyFreeDBPlugin 1.0
#
DISCID=b00bce0c
DTITLE=Egidio Juke Ingala Band - Game's Over
DYEAR=2007
DGENRE=Blues
TTITLE0=You Took Me Out
TTITLE1=Next Time
TTITLE2=Worried All The Time
TTITLE3=Frankie and Johnny
TTITLE4=Game's Over
TTITLE5=Namaste
TTITLE6=Hurry Hurry
TTITLE7=Shine
TTITLE8=I Had A Girl
TTITLE9=Squeeze Me
TTITLE10=I'm Wrong
TTITLE11=Sunshine
EXTD=
EXTT0=
EXTT1=
EXTT2=
EXTT3=
EXTT4=
EXTT5=
EXTT6=
EXTT7=
EXTT8=
EXTT9=
EXTT10=
EXTT11=
PLAYORDER=
